# AST/ASF file generated using VICON BodyLanguage
# -----------------------------------------------
:version 1.10
:name VICON
:units
  mass 1.0
  length 0.45
  angle deg
:documentation
   .ast/.asf automatically generated from VICON data using
   VICON BodyBuilder and BodyLanguage model FoxedUp or BRILLIANT.MOD
:root
   order TX TY TZ RX RY RZ
   axis XYZ
   position 0 0 0  
   orientation 0 0 0 
:bonedata
  begin
     id 1 
     name lhipjoint
     direction 0.660183 -0.676772 0.325788 
     length 2.75133 
     axis 0 0 0  XYZ
  end
  begin
     id 2 
     name lfemur
     direction 0.34202 -0.939693 0  
     length 7.70317  
     axis 0 0 20  XYZ
    dof rx ry rz
    limits (-160.0 20.0)
           (-70.0 70.0)
           (-60.0 70.0)
  end
  begin
     id 3 
     name ltibia
     direction 0.342105 -0.939662 0   
     length 7.18701   
     axis 0 0 20   XYZ
    dof rx
    limits (-10.0 170.0)
  end
  begin
     id 4 
     name lfoot
     direction 0.14163 -0.389126 0.910232   
     length 2.41719   
     axis -90 7.62852e-016 20   XYZ
    dof rx rz
    limits (-45.0 90.0)
           (-70.0 20.0)
  end
  begin
     id 5 
     name ltoes
     direction 1.53533e-011 -4.21926e-011 1   
     length 1.18611   
     axis -90 7.62852e-016 20   XYZ
    dof rx
    limits (-90.0 20.0)
  end
  begin
     id 6 
     name rhipjoint
     direction -0.6658 -0.67229 0.323631   
     length 2.76968  
     axis 0 0 0  XYZ 
  end
  begin
     id 7 
     name rfemur
     direction -0.34202 -0.939693 0   
     length 7.92547   
     axis 0 0 -20   XYZ
    dof rx ry rz
    limits (-160.0 20.0)
           (-70.0 70.0)
           (-70.0 60.0)
  end
  begin
     id 8 
     name rtibia
     direction -0.342022 -0.939692 0   
     length 7.22641   
     axis 0 0 -20   XYZ
    dof rx
    limits (-10.0 170.0)
 end
 begin
     id 9 
     name rfoot
     direction -0.105675 -0.29034 0.951071   
     length 2.48149  
     axis -90 -7.62852e-016 -20   XYZ
    dof rx rz
    limits (-45.0 90.0)
           (-20.0 70.0)
  end
  begin
     id 10 
     name rtoes
     direction -1.5349e-011 -4.21859e-011 1   
     length 1.23343   
     axis -90 -7.62852e-016 -20   XYZ
    dof rx
    limits (-90.0 20.0)
  end
  begin
     id 11 
     name lowerback
     direction 0.0104173 0.993624 -0.112266   
     length 2.00527   
     axis 0 0 0   XYZ
    dof rx ry rz
    limits (-20.0 45.0)
           (-30.0 30.0)
           (-30.0 30.0)
  end
  begin
     id 12 
     name upperback
     direction 0.00733149 0.999856 -0.0152913   
     length 2.01385   
     axis 0 0 0   XYZ
    dof rx ry rz
    limits (-20.0 45.0)
           (-30.0 30.0)
           (-30.0 30.0)
  end
  begin
     id 13 
     name thorax
     direction 0.0026304 0.999318 0.036841   
     length 2.03734   
     axis 0 0 0   XYZ
    dof rx ry rz
    limits (-20.0 45.0)
           (-30.0 30.0)
           (-30.0 30.0)
  end
  begin
     id 14 
     name lowerneck
     direction 0.0293154 0.998757 0.0403082   
     length 1.65303   
     axis 0 0 0   XYZ
    dof rx ry rz
    limits (-20.0 45.0)
           (-30.0 30.0)
           (-30.0 30.0)
  end
  begin
     id 15 
     name upperneck
     direction -0.0376619 0.998184 -0.0470083   
     length 1.60926   
     axis 0 0 0   XYZ
    dof rx ry rz
    limits (-20.0 45.0)
           (-30.0 30.0)
           (-30.0 30.0)
  end
  begin
     id 16
     name head
     direction -0.0170133 0.999635 -0.0209778  
     length 1.73625  
     axis 0 0 0   XYZ
    dof rx ry rz
    limits (-20.0 45.0)
           (-30.0 30.0)
           (-30.0 30.0)
  end
  begin
     id 17 
     name lclavicle
     direction 0.919857 0.39181 -0.0186333  
     length 3.75313  
     axis 0 0 0   XYZ
    dof ry rz
    limits (-20.0 10.0)
           (0.0 20.0)
  end
  begin
     id 18 
     name lhumerus
     direction 1 -4.48988e-011 1.44029e-027   
     length 5.49313   
     axis 180 -30 -90   XYZ
    dof rx ry rz
    limits (-60.0 90.0)
           (-90.0 90.0)
           (-90.0 90.0)
  end
  begin
     id 19
     name lradius
     direction 1 -4.48924e-011 7.46281e-027   
     length 3.29037   
     axis 180 -30 -90   XYZ
    dof rx
    limits (-10.0 170.0)
  end
  begin
     id 20
     name lwrist
     direction 1 -4.48955e-011 2.19879e-026   
     length 1.64519   
     axis -1.34358e-014 90 90   XYZ
    dof ry
    limits (-180.0 0.0)
 end
  begin
     id 21 
     name lhand
     direction 1 -4.48978e-011 4.39747e-026   
     length 0.729656   
     axis -2.80598e-014 90 90   XYZ
    dof rx rz
    limits (-90.0 90.0)
           (-45.0 45.0)
  end
  begin
     id 22 
     name lfingers
     direction 1 -4.49071e-011 8.79411e-026   
     length 0.588268   
     axis -5.61193e-014 90 90   XYZ
    dof rx
    limits (0.0 90.0)
  end
  begin
     id 23
     name lthumb
     direction 0.707107 -6.34817e-011 0.707107   
     length 0.844638   
     axis -90 45 -9.86923e-015   XYZ
    dof rx rz
    limits (-45.0 45.0)
           (-45.0 45.0)
  end
  begin
     id 24 
     name rclavicle
     direction -0.919898 0.388279 0.0550233   
     length 3.7171  
     axis 0 0 0   XYZ 
    dof ry rz
    limits (-10.0 20.0)
           (-20.0 0.0)
  end
  begin
     id 25 
     name rhumerus
     direction -1 -4.48968e-011 9.98372e-028  
     length 5.23684   
     axis 180 30 90   XYZ
    dof rx ry rz
    limits (-90.0 60.0)
           (-90.0 90.0)
           (-90.0 90.0)
  end
  begin
     id 26 
     name rradius
     direction -1 -4.48956e-011 1.01023e-026   
     length 3.38251   
     axis 180 30 90   XYZ
    dof rx
    limits (-10.0 170.0)
  end
  begin
     id 27 
     name rwrist
     direction -1 -4.4892e-011 2.19886e-026   
     length 1.69126   
     axis -1.34358e-014 -90 -90   XYZ
    dof ry
    limits (-180.0 0.0)
  end
  begin
     id 28
     name rhand
     direction -1 -4.49024e-011 4.39727e-026   
     length 0.691454   
     axis -2.80598e-014 -90 -90   XYZ
    dof rx rz
    limits (-90.0 90.0)
           (-45.0 45.0)
  end
  begin
     id 29
     name rfingers
     direction -1 -4.49097e-011 8.79388e-026   
     length 0.557468   
     axis -5.61193e-014 -90 -90   XYZ
    dof rx
    limits (0.0 90.0)
  end
  begin
     id 30
     name rthumb
     direction -0.707107 -6.34938e-011 0.707107   
     length 0.800416   
     axis -90 -45 9.86923e-015   XYZ
    dof rx rz
    limits (-45.0 45.0)
           (-45.0 45.0)
  end
:hierarchy
  begin
    root lhipjoint rhipjoint lowerback
    lhipjoint lfemur
    lfemur ltibia
    ltibia lfoot
    lfoot ltoes
    rhipjoint rfemur
    rfemur rtibia
    rtibia rfoot
    rfoot rtoes
    lowerback upperback
    upperback thorax
    thorax lowerneck lclavicle rclavicle
    lowerneck upperneck
    upperneck head
    lclavicle lhumerus
    lhumerus lradius
    lradius lwrist
    lwrist lhand lthumb
    lhand lfingers
    rclavicle rhumerus
    rhumerus rradius
    rradius rwrist
    rwrist rhand rthumb
    rhand rfingers
  end

#!OML:ASF H:\BabyWalks\Project 1\Capture day 1\Session 1\baby.ASF
:FULLY-SPECIFIED
:DEGREES
160
root -36.1942 17.6069 -3.86625 -10.5498 76.8997 -16.3146
lowerback 15.4592 0.106103 0.285463
upperback 6.41241 0.527292 1.75698
thorax -1.88846 0.366912 1.58581
lowerneck -2.01124 2.70929 1.98154
upperneck 8.35569 3.98569 -4.76134
head 3.19838 1.90367 -1.76383
rclavicle -2.7951e-014 -1.48405e-014
rhumerus -37.1609 15.3547 -83.7278
rradius 44.6081
rwrist 2.32158
rhand -9.15994 -15.7792
rfingers 7.12502
rthumb 16.7925 -45.0731
lclavicle -2.7951e-014 -1.48405e-014
lhumerus -40.7226 4.30985 80.9873
lradius 47.1471
lwrist 0.406639
lhand 2.01776 11.9655
lfingers 7.12502
lthumb 27.5216 39.974
rfemur 11.8658 -4.25314 24.8322
rtibia -3.18055e-015
rfoot -16.2996 -16.3939
rtoes 0.146559
lfemur -25.3764 3.19315 -14.675
ltibia 36.0945
lfoot -15.5109 5.09307
ltoes -1.51132
161
root -36.1353 17.6042 -3.88196 -10.3944 76.8634 -16.2579
lowerback 15.4688 0.177813 0.132936
upperback 6.41645 0.596583 1.68355
thorax -1.89155 0.399583 1.5835
lowerneck -1.97413 2.68976 2.05495
upperneck 8.27134 3.94755 -4.7185
head 3.16161 1.88918 -1.76415
rclavicle -1.56294e-014 6.49777e-015
rhumerus -37.2705 15.4311 -83.8045
rradius 44.6803
rwrist 2.25913
rhand -9.15098 -15.7812
rfingers 7.12502
rthumb 16.8011 -45.0743
lclavicle -1.56294e-014 6.49777e-015
lhumerus -40.6699 4.25702 80.8723
lradius 47.1288
lwrist 0.389577
lhand 2.01274 11.9776
lfingers 7.12502
lthumb 27.5168 39.9868
rfemur 11.9484 -4.19155 24.7275
rtibia -5.08889e-014
rfoot -16.3782 -16.4531
rtoes -0.151993
lfemur -25.3448 3.19251 -14.7672
ltibia 36.2411
lfoot -15.7882 5.12704
ltoes -1.57755
162
root -36.0743 17.6018 -3.89787 -10.2284 76.8216 -16.1874
lowerback 15.4701 0.254579 -0.0259806
upperback 6.4212 0.671382 1.60794
thorax -1.88985 0.434888 1.58162
lowerneck -1.93923 2.67386 2.13178
upperneck 8.19664 3.91439 -4.67104
head 3.12876 1.87725 -1.76336
rclavicle -1.14301e-014 5.26779e-015
rhumerus -37.3856 15.5008 -83.8825
rradius 44.7429
rwrist 2.20108
rhand -9.14435 -15.781
rfingers 7.12502
rthumb 16.8075 -45.0735
lclavicle -1.14301e-014 5.26779e-015
lhumerus -40.6126 4.20353 80.7541
lradius 47.1256
lwrist 0.382008
lhand 2.00406 11.9859
lfingers 7.12502
lthumb 27.5085 39.9965
rfemur 12.0396 -4.12386 24.618
rtibia -1.90833e-014
rfoot -16.4387 -16.5216
rtoes -0.500067
lfemur -25.2937 3.20543 -14.8651
ltibia 36.3734
lfoot -16.0708 5.15806
ltoes -1.65013
163
root -36.0114 17.6001 -3.91386 -10.0605 76.7783 -16.1145
lowerback 15.4661 0.334496 -0.191769
upperback 6.42451 0.749218 1.53153
thorax -1.88714 0.471571 1.58231
lowerneck -1.90413 2.66176 2.20999
upperneck 8.13058 3.88649 -4.618
head 3.09895 1.86802 -1.7608
rclavicle 4.12478e-015 6.06293e-015
rhumerus -37.5076 15.5646 -83.9625
rradius 44.7986
rwrist 2.14317
rhand -9.14232 -15.7818
rfingers 7.12502
rthumb 16.8094 -45.0741
lclavicle 4.12478e-015 6.06293e-015
lhumerus -40.5508 4.15287 80.6323
lradius 47.1369
lwrist 0.383093
lhand 1.98918 12.0095
lfingers 7.12502
lthumb 27.4942 40.0224
rfemur 12.1357 -4.05459 24.5067
rtibia -4.45278e-014
rfoot -16.4685 -16.6064
rtoes -0.885954
lfemur -25.2257 3.232 -14.9668
ltibia 36.4885
lfoot -16.3547 5.18114
ltoes -1.73744
164
root -35.9469 17.5991 -3.92989 -9.90096 76.7393 -16.052
lowerback 15.4556 0.415556 -0.359905
upperback 6.42685 0.828147 1.45375
thorax -1.88218 0.508749 1.58277
lowerneck -1.87584 2.65242 2.28518
upperneck 8.07464 3.86184 -4.55101
head 3.07353 1.86054 -1.75292
rclavicle -1.14301e-015 2.38542e-014
rhumerus -37.6361 15.6176 -84.0445
rradius 44.8525
rwrist 2.08457
rhand -9.13783 -15.7826
rfingers 7.12502
rthumb 16.8138 -45.0746
lclavicle -1.14301e-015 2.38542e-014
lhumerus -40.4797 4.10261 80.5064
lradius 47.1601
lwrist 0.393896
lhand 1.97262 12.0201
lfingers 7.12502
lthumb 27.4784 40.0355
rfemur 12.2339 -3.98971 24.3957
rtibia 5.725e-014
rfoot -16.4715 -16.7034
rtoes -1.29655
lfemur -25.146 3.26883 -15.0709
ltibia 36.5868
lfoot -16.6318 5.19369
ltoes -1.89164
165
root -35.8811 17.5989 -3.94589 -9.75461 76.707 -16.0117
lowerback 15.4375 0.495653 -0.527835
upperback 6.42383 0.905623 1.37519
thorax -1.87899 0.545124 1.5826
lowerneck -1.85078 2.64569 2.35681
upperneck 8.02806 3.84041 -4.47133
head 3.05158 1.8548 -1.74008
rclavicle -1.0138e-014 -7.35503e-015
rhumerus -37.7701 15.661 -84.1298
rradius 44.8977
rwrist 2.03064
rhand -9.1347 -15.7827
rfingers 7.12502
rthumb 16.8168 -45.0745
lclavicle -1.0138e-014 -7.35503e-015
lhumerus -40.4042 4.05583 80.374
lradius 47.1969
lwrist 0.413138
lhand 1.95272 12.0395
lfingers 7.12502
lthumb 27.4594 40.0579
rfemur 12.3253 -3.93166 24.2887
rtibia -3.49861e-014
rfoot -16.4379 -16.8185
rtoes -1.70425
lfemur -25.0633 3.31587 -15.1753
ltibia 36.6685
lfoot -16.9168 5.19195
ltoes -1.9954
166
root -35.8145 17.5995 -3.96173 -9.64106 76.6904 -16.0182
lowerback 15.4131 0.572316 -0.692734
upperback 6.41388 0.978905 1.2984
thorax -1.87976 0.579367 1.5833
lowerneck -1.82772 2.63946 2.42458
upperneck 7.98791 3.81936 -4.38012
head 3.03178 1.84939 -1.72273
rclavicle 2.80286e-014 -5.96354e-016
rhumerus -37.9022 15.6873 -84.2137
rradius 44.9289
rwrist 1.97501
rhand -9.12596 -15.7806
rfingers 7.12502
rthumb 16.8252 -45.0716
lclavicle 2.80286e-014 -5.96354e-016
lhumerus -40.3201 4.01258 80.2369
lradius 47.2439
lwrist 0.434267
lhand 1.92809 12.0437
lfingers 7.12502
lthumb 27.4358 40.0658
rfemur 12.4037 -3.89016 24.1915
rtibia -1.90833e-014
rfoot -16.3833 -16.9374
rtoes -2.15169
lfemur -24.9886 3.36221 -15.2745
ltibia 36.7364
lfoot -17.1984 5.17571
ltoes -2.10023
167
root -35.7465 17.6004 -3.97764 -9.57495 76.6718 -16.0753
lowerback 15.3847 0.649859 -0.848156
upperback 6.40179 1.05478 1.22362
thorax -1.88081 0.615009 1.58037
lowerneck -1.80433 2.63176 2.48174
upperneck 7.95285 3.79592 -4.27216
head 3.01277 1.84295 -1.69804
rclavicle -2.08724e-014 2.18663e-015
rhumerus -38.0386 15.7037 -84.2972
rradius 44.9563
rwrist 1.91758
rhand -9.10778 -15.7929
rfingers 7.12502
rthumb 16.8427 -45.0825
lclavicle -2.08724e-014 2.18663e-015
lhumerus -40.2311 3.97501 80.0963
lradius 47.306
lwrist 0.464047
lhand 1.90751 12.054
lfingers 7.12502
lthumb 27.4161 40.0793
rfemur 12.483 -3.84877 24.1068
rtibia -4.13472e-014
rfoot -16.3005 -17.067
rtoes -2.60672
lfemur -24.9052 3.41713 -15.3634
ltibia 36.7935
lfoot -17.4822 5.15496
ltoes -2.19989
168
root -35.6781 17.6017 -3.99348 -9.57043 76.666 -16.2077
lowerback 15.3492 0.724619 -0.995643
upperback 6.38587 1.12837 1.15561
thorax -1.88223 0.649524 1.58052
lowerneck -1.77591 2.62079 2.53841
upperneck 7.91477 3.76816 -4.16257
head 2.99161 1.83447 -1.67294
rclavicle -5.46658e-015 -8.34896e-015
rhumerus -38.177 15.7106 -84.3747
rradius 44.9858
rwrist 1.85814
rhand -9.08036 -15.8006
rfingers 7.12502
rthumb 16.8691 -45.088
lclavicle -5.46658e-015 -8.34896e-015
lhumerus -40.1276 3.94229 79.9578
lradius 47.3756
lwrist 0.500026
lhand 1.88717 12.076
lfingers 7.12502
lthumb 27.3967 40.1043
rfemur 12.5499 -3.82243 24.0397
rtibia -8.26944e-014
rfoot -16.2138 -17.1921
rtoes -3.0692
lfemur -24.8333 3.46759 -15.4391
ltibia 36.843
lfoot -17.7612 5.12751
ltoes -2.30471
169
root -35.6099 17.6033 -4.00915 -9.65469 76.6806 -16.449
lowerback 15.3073 0.792465 -1.12985
upperback 6.36334 1.19498 1.09746
thorax -1.88708 0.680625 1.5847
lowerneck -1.74518 2.60813 2.58915
upperneck 7.8748 3.73826 -4.04854
head 2.96904 1.82488 -1.64544
rclavicle -1.5207e-014 5.1684e-015
rhumerus -38.3177 15.7136 -84.4465
rradius 45.0227
rwrist 1.78949
rhand -9.04109 -15.8216
rfingers 7.12502
rthumb 16.9069 -45.1057
lclavicle -1.5207e-014 5.1684e-015
lhumerus -40.0154 3.9167 79.8214
lradius 47.4586
lwrist 0.543269
lhand 1.87174 12.0893
lfingers 7.12502
lthumb 27.3819 40.12
rfemur 12.5965 -3.81954 23.9976
rtibia 5.725e-014
rfoot -16.1079 -17.318
rtoes -3.53739
lfemur -24.7853 3.50836 -15.4951
ltibia 36.8871
lfoot -18.0303 5.09204
ltoes -2.42232
170
root -35.5407 17.6053 -4.02506 -9.8322 76.6852 -16.7874
lowerback 15.2629 0.860752 -1.24547
upperback 6.3395 1.26514 1.04775
thorax -1.89214 0.713672 1.58669
lowerneck -1.70113 2.59398 2.64256
upperneck 7.82674 3.70679 -3.93893
head 2.94144 1.81461 -1.62006
rclavicle -9.54166e-015 -9.54166e-015
rhumerus -38.4566 15.7119 -84.5132
rradius 45.0552
rwrist 1.72404
rhand -8.98944 -15.8507
rfingers 7.12502
rthumb 16.9566 -45.1306
lclavicle -9.54166e-015 -9.54166e-015
lhumerus -39.8998 3.90154 79.6869
lradius 47.5521
lwrist 0.592263
lhand 1.85215 12.1036
lfingers 7.12502
lthumb 27.3632 40.1372
rfemur 12.6433 -3.81073 23.9792
rtibia -8.26944e-014
rfoot -15.9984 -17.429
rtoes -4.06174
lfemur -24.732 3.5499 -15.5267
ltibia 36.926
lfoot -18.2926 5.06874
ltoes -2.58617
171
root -35.4715 17.608 -4.04103 -10.1249 76.7013 -17.254
lowerback 15.2187 0.923109 -1.34126
upperback 6.31084 1.33065 1.01014
thorax -1.9022 0.744585 1.59091
lowerneck -1.64744 2.57859 2.69849
upperneck 7.77317 3.67434 -3.83579
head 2.91045 1.80381 -1.5974
rclavicle -1.33186e-014 -3.37934e-015
rhumerus -38.5753 15.6909 -84.5679
rradius 45.0564
rwrist 1.66928
rhand -8.92824 -15.871
rfingers 7.12502
rthumb 17.0155 -45.1458
lclavicle -1.33186e-014 -3.37934e-015
lhumerus -39.7782 3.89405 79.5577
lradius 47.6542
lwrist 0.643018
lhand 1.82526 12.1316
lfingers 7.12502
lthumb 27.3375 40.1692
rfemur 12.6768 -3.81787 23.9891
rtibia -6.36111e-014
rfoot -15.8737 -17.5229
rtoes -4.65735
lfemur -24.691 3.5728 -15.5303
ltibia 36.9582
lfoot -18.5429 5.05361
ltoes -2.78859
172
root -35.4016 17.6114 -4.05729 -10.5133 76.7087 -17.8217
lowerback 15.1687 0.984827 -1.41687
upperback 6.28294 1.39861 0.982097
thorax -1.90844 0.776883 1.59346
lowerneck -1.58454 2.56543 2.75923
upperneck 7.71127 3.64549 -3.7409
head 2.87551 1.79473 -1.57828
rclavicle -2.38542e-015 1.70955e-014
rhumerus -38.6796 15.6569 -84.6128
rradius 45.0397
rwrist 1.62185
rhand -8.8631 -15.8863
rfingers 7.12502
rthumb 17.0782 -45.1556
lclavicle -2.38542e-015 1.70955e-014
lhumerus -39.6515 3.89474 79.4336
lradius 47.7638
lwrist 0.7007
lhand 1.78706 12.1554
lfingers 7.12502
lthumb 27.3009 40.1988
rfemur 12.7064 -3.82055 24.0211
rtibia 1.59028e-014
rfoot -15.7157 -17.6018
rtoes -5.31812
lfemur -24.6453 3.58488 -15.5081
ltibia 36.9818
lfoot -18.7906 5.0593
ltoes -2.98329
173
root -35.3309 17.6159 -4.07393 -10.9998 76.7026 -18.4905
lowerback 15.1216 1.04435 -1.46861
upperback 6.2522 1.46718 0.96224
thorax -1.91901 0.809751 1.59096
lowerneck -1.50919 2.55647 2.82219
upperneck 7.64406 3.62287 -3.64925
head 2.83693 1.78878 -1.56055
rclavicle 2.18663e-015 -2.38542e-015
rhumerus -38.7691 15.6129 -84.652
rradius 44.9951
rwrist 1.58721
rhand -8.80328 -15.8918
rfingers 7.12502
rthumb 17.1358 -45.1562
lclavicle 2.18663e-015 -2.38542e-015
lhumerus -39.5276 3.90675 79.3107
lradius 47.881
lwrist 0.757529
lhand 1.73243 12.1919
lfingers 7.12502
lthumb 27.2487 40.2436
rfemur 12.7322 -3.81407 24.074
rtibia 2.54444e-014
rfoot -15.5143 -17.6601
rtoes -6.02594
lfemur -24.5898 3.58156 -15.458
ltibia 36.9944
lfoot -19.0374 5.09333
ltoes -3.14705
